<?xml version="1.0" standalone="no"?><!DOCTYPE svg PUBLIC "-//W3C//DTD SVG 1.1//EN" "http://www.w3.org/Graphics/SVG/1.1/DTD/svg11.dtd"><svg class="icon" width="200px" height="200.00px" viewBox="0 0 1024 1024" version="1.1" xmlns="http://www.w3.org/2000/svg"><path d="M851.007251 1007.985702h-34.316354V560.969437c0-73.894549-31.216443-143.648257-87.895621-196.42681-57.022341-53.087399-132.586953-82.359249-212.761394-82.359249h-5.799464c-80.18588 0-155.750492 29.237534-212.761394 82.359249-56.679178 52.767113-87.895621 122.532261-87.895621 196.42681V1006.384272h-34.316354V560.969437a291.997855 291.997855 0 0 1 26.62949-122.017516 313.354066 313.354066 0 0 1 72.201609-99.517426c63.393744-59.024129 147.262913-91.510277 236.153709-91.510277h5.799463c88.902234 0 172.725648 32.497587 236.153709 91.510277a313.422699 313.422699 0 0 1 72.201609 99.517426 291.986416 291.986416 0 0 1 26.62949 122.017516z"  /><path d="M937.187054 1024H89.046929a17.158177 17.158177 0 0 1 0-34.316354h848.140125a17.158177 17.158177 0 0 1 0 34.316354zM513.219941 152.639142a17.158177 17.158177 0 0 1-17.158177-17.158177V17.158177a17.158177 17.158177 0 0 1 34.316354 0v118.322788a17.158177 17.158177 0 0 1-17.158177 17.158177zM305.422979 218.343521a17.158177 17.158177 0 0 1-11.999285-4.8958l-90.011796-88.078641a17.16504 17.16504 0 1 1 24.021447-24.524755l90.011797 88.078642a17.158177 17.158177 0 0 1-11.999285 29.420554zM718.68339 217.863092a17.158177 17.158177 0 0 1-11.999285-29.420554l90.011796-88.078642a17.16504 17.16504 0 1 1 24.021448 24.524755l-90.034674 88.021447a17.158177 17.158177 0 0 1-11.999285 4.952994zM873.724677 379.218588a17.158177 17.158177 0 0 1-2.573727-34.121895l132.884362-20.292403a17.160465 17.160465 0 1 1 5.181769 33.927435l-132.884361 20.292404a17.295442 17.295442 0 0 1-2.608043 0.194459zM150.507519 384.251653a17.295442 17.295442 0 0 1-2.608043-0.194459L14.96936 363.76479a17.158177 17.158177 0 1 1 5.136014-33.927435l132.918677 20.338159a17.158177 17.158177 0 0 1-2.516532 34.076139z"  /><path d="M501.758278 643.683289m-149.2647 0a149.264701 149.264701 0 1 0 298.529401 0 149.264701 149.264701 0 1 0-298.529401 0Z"  /><path d="M716.498582 846.618767a17.089544 17.089544 0 0 1-10.741018-3.786238L552.603676 719.648257a17.158177 17.158177 0 0 1 21.504915-26.743878l153.153888 123.161394a17.158177 17.158177 0 0 1-10.763897 30.552994z"  /></svg>