<?xml version="1.0" standalone="no"?><!DOCTYPE svg PUBLIC "-//W3C//DTD SVG 1.1//EN" "http://www.w3.org/Graphics/SVG/1.1/DTD/svg11.dtd"><svg class="icon" width="200px" height="200.00px" viewBox="0 0 1024 1024" version="1.1" xmlns="http://www.w3.org/2000/svg"><path d="M887.466667 1024H136.533333a68.266667 68.266667 0 0 1-68.266666-68.266667V68.266667a68.266667 68.266667 0 0 1 68.266666-68.266667h750.933334a68.266667 68.266667 0 0 1 68.266666 68.266667v887.466666a68.266667 68.266667 0 0 1-68.266666 68.266667z m0-921.6a34.133333 34.133333 0 0 0-34.133334-34.133333H170.666667a34.133333 34.133333 0 0 0-34.133334 34.133333v819.2a34.133333 34.133333 0 0 0 34.133334 34.133333h682.666666a34.133333 34.133333 0 0 0 34.133334-34.133333V102.4z m-153.6 648.533333h-307.2a17.066667 17.066667 0 0 1-17.066667-17.066666v-34.133334a17.066667 17.066667 0 0 1 17.066667-17.066666h307.2a17.066667 17.066667 0 0 1 17.066666 17.066666v34.133334a17.066667 17.066667 0 0 1-17.066666 17.066666z m0-204.8h-307.2a17.066667 17.066667 0 0 1-17.066667-17.066666v-34.133334a17.066667 17.066667 0 0 1 17.066667-17.066666h307.2a17.066667 17.066667 0 0 1 17.066666 17.066666v34.133334a17.066667 17.066667 0 0 1-17.066666 17.066666z m0-204.8h-307.2a17.066667 17.066667 0 0 1-17.066667-17.066666v-34.133334a17.066667 17.066667 0 0 1 17.066667-17.066666h307.2a17.066667 17.066667 0 0 1 17.066666 17.066666v34.133334a17.066667 17.066667 0 0 1-17.066666 17.066666z m-409.6 409.6h-34.133334a17.066667 17.066667 0 0 1-17.066666-17.066666v-34.133334a17.066667 17.066667 0 0 1 17.066666-17.066666h34.133334a17.066667 17.066667 0 0 1 17.066666 17.066666v34.133334a17.066667 17.066667 0 0 1-17.066666 17.066666z m0-204.8h-34.133334a17.066667 17.066667 0 0 1-17.066666-17.066666v-34.133334a17.066667 17.066667 0 0 1 17.066666-17.066666h34.133334a17.066667 17.066667 0 0 1 17.066666 17.066666v34.133334a17.066667 17.066667 0 0 1-17.066666 17.066666z m0-204.8h-34.133334a17.066667 17.066667 0 0 1-17.066666-17.066666v-34.133334a17.066667 17.066667 0 0 1 17.066666-17.066666h34.133334a17.066667 17.066667 0 0 1 17.066666 17.066666v34.133334a17.066667 17.066667 0 0 1-17.066666 17.066666z"  /></svg>