<?xml version="1.0" standalone="no"?><!DOCTYPE svg PUBLIC "-//W3C//DTD SVG 1.1//EN" "http://www.w3.org/Graphics/SVG/1.1/DTD/svg11.dtd"><svg class="icon" width="200px" height="200.00px" viewBox="0 0 1024 1024" version="1.1" xmlns="http://www.w3.org/2000/svg"><path d="M420.352 468.48H76.288c-25.088 0-46.08-20.48-46.08-46.08V78.848c0-25.088 20.48-46.08 46.08-46.08H419.84c25.088 0 46.08 20.48 46.08 46.08v343.552c0 25.6-20.48 46.08-45.568 46.08zM420.352 991.232H76.288c-25.088 0-46.08-20.48-46.08-46.08v-343.552c0-25.088 20.48-46.08 46.08-46.08H419.84c25.088 0 46.08 20.48 46.08 46.08v343.552c0 25.088-20.48 46.08-45.568 46.08zM947.712 991.232H604.16c-25.088 0-46.08-20.48-46.08-46.08v-343.552c0-25.088 20.48-46.08 46.08-46.08h343.552c25.088 0 46.08 20.48 46.08 46.08v343.552c-0.512 25.088-20.992 46.08-46.08 46.08z"  /><path d="M964.096 372.736l-93.184-79.36c11.776-23.552 18.432-49.664 18.432-77.312 0-95.232-77.312-172.544-172.544-172.544s-172.544 77.312-172.544 172.544 77.312 172.544 172.544 172.544c35.84 0 69.12-10.752 96.768-29.696 0.512 0 0.512 0.512 1.024 0.512l93.696 79.872c18.432 15.36 46.08 13.312 61.44-5.12 14.848-17.92 12.8-45.568-5.632-61.44zM716.8 319.488c-57.344 0-103.424-46.08-103.424-103.424S659.456 112.64 716.8 112.64s103.424 46.08 103.424 103.424c0 56.832-46.592 103.424-103.424 103.424z"  /></svg>