<?xml version="1.0" standalone="no"?><!DOCTYPE svg PUBLIC "-//W3C//DTD SVG 1.1//EN" "http://www.w3.org/Graphics/SVG/1.1/DTD/svg11.dtd"><svg class="icon" width="200px" height="200.00px" viewBox="0 0 1024 1024" version="1.1" xmlns="http://www.w3.org/2000/svg"><path d="M812.8 45.6l77.12 77.44-126.4 123.84L648.32 144 403.2 398.24l-135.52-118.72L1.12 541.44l61.92 62.4 206.88-206.4L400 514.56 654.24 256l110.08 100.64 187.2-171.04L1024 256V45.44z m0 0M0 720.64h92v257.92H0zM149.6 619.2h92v359.36H149.6zM304.32 672.48h92v306.08h-92zM460.8 593.28h92v385.12H460.8zM615.68 436.8h92v541.76h-92zM772.16 567.52h92v411.04h-92zM926.88 385.28h92v593.28h-92z" /></svg>