<?xml version="1.0" standalone="no"?><!DOCTYPE svg PUBLIC "-//W3C//DTD SVG 1.1//EN" "http://www.w3.org/Graphics/SVG/1.1/DTD/svg11.dtd"><svg class="icon" width="200px" height="200.00px" viewBox="0 0 1024 1024" version="1.1" xmlns="http://www.w3.org/2000/svg"><path d="M642.38 819.96c0-12.003-8.647-21.72-19.424-21.72H401.034c-10.592 0-19.415 9.717-19.415 21.72v111.355H163.981v65.148h696.037v-65.148H642.38V819.96zM946.867 27.536H77.131C41.122 27.536 12 56.659 12 92.676v608.832c0 36.009 29.122 65.136 65.131 65.136h869.736c36.009 0 65.132-29.127 65.132-65.136V92.676c0.175-36.017-29.123-65.14-65.132-65.14z m0 652.253c0 12.011-9.707 21.719-21.71 21.719H99.025c-12.012 0-21.719-9.708-21.719-21.719V114.386c0-12.007 9.708-21.71 21.719-21.71h826.132c12.003 0 21.71 9.703 21.71 21.71v565.403z m0 0"  /><path d="M154.799 373.522s61.425-0.885 68.136-2.471c6.711-1.59 13.414-4.766 19.949-9.357l12.003-10.058c4.941-4.24 43.955-41.844 49.072-46.781 10.067-10.417 19.073-14.473 27.186-12.182 8.13 2.295 14.123 7.237 18.013 14.648l33.179 75.557c17.128-39.544 91.976-223.307 92.326-225.422 2.471-7.062 7.412-12.883 12.362-17.12 4.932-4.416 22.937-11.126 36.884-1.945 6.36 4.236 11.478 9.528 13.598 19.064 0.525 2.471 1.595 9.177 2.996 19.945 1.586 10.772 31.602 270.792 40.258 329.931 11.118-30.016 73.428-186.593 74.488-188.179 2.471-6.711 5.467-11.652 8.997-15.003 3.531-3.355 8.306-5.646 14.299-6.886 11.469-2.471 14.824-0.706 21.185 3.005 6.711 3.881 12.187 11.823 13.413 17.12 2.479 9.182 35.658 94.792 35.658 94.792 0.526-0.354 21.186-26.66 26.136-34.068 6.526-8.122 10.767-12.888 19.94-15.188 9.182-2.291 15.008-1.056 23.479-0.706 5.477 0.355 51.192 0.706 51.192 0.706v50.666c-3.005 0.355-34.072-0.53-34.072-0.53-7.062-0.351-13.589-1.06-19.591 2.475-6.001 3.531-6.526 3.531-9.182 6.882-1.944 3.355-26.477 39.898-36.543 53.132-1.937 4.946-9.523 7.237-14.123 8.832-4.582 1.59-9.173 2.471-13.948 2.12-4.757-0.18-9.348-1.415-13.58-3.355-4.249-2.12-7.245-4.591-8.655-7.417-1.595-3.005-30.367-67.431-34.949-77.498-13.071 34.603-82.435 215.54-82.969 218.015-4.591 11.998-7.245 17.829-14.298 23.65-7.053 5.826-14.474 8.473-24.541 8.122-10.583-0.881-20.834-7.237-25.416-13.943-4.591-6.712-5.65-11.648-6.535-20.305 0-2.115-0.701-8.472-1.945-19.419a3067.88 3067.88 0 0 0-4.933-41.13c-1.945-16.594-25.6-222.947-33.188-284.202-14.123 34.068-78.378 191.175-78.378 191.175-2.471 5.467-5.826 10.413-10.233 15.004-4.249 4.591-10.942 6.707-19.949 6.181-9.006 0-15.884-2.65-20.309-7.771-4.582-5.117-8.113-11.118-10.592-17.829-1.586-3.351-32.487-73.253-38.471-87.38-3.54 3.706-30.726 30.012-34.598 33.718-8.13 7.946-15.542 13.238-22.604 16.239-7.062 3.001-15.35 3.886-24.891 3.176-4.933-0.351-65.315 0.709-76.958 0.709l0.702-48.719z m0 0"  /></svg>