<?xml version="1.0" standalone="no"?><!DOCTYPE svg PUBLIC "-//W3C//DTD SVG 1.1//EN" "http://www.w3.org/Graphics/SVG/1.1/DTD/svg11.dtd"><svg class="icon" width="200px" height="200.00px" viewBox="0 0 1024 1024" version="1.1" xmlns="http://www.w3.org/2000/svg"><path d="M999.833729 811.349894h-29.793491c-3.135897-6.271795-7.839743-18.816617-12.54359-28.224309l20.383333-25.089646a17.052521 17.052521 0 0 0 0-23.521697l-25.087178-23.520463c-7.840977-6.271795-18.817851-6.271795-25.089646 0l-20.384566 21.952515c-9.407692-6.271795-21.958683-9.407692-28.225543-12.544823v-29.792258a17.299248 17.299248 0 0 0-17.249903-17.247435h-37.632001c-10.979341 0-20.383332 7.839743-20.383332 17.248668v29.792258c-6.273028 3.137131-18.817851 7.840977-28.225543 12.544823l-20.384566-21.952515a17.054988 17.054988 0 0 0-23.521697 0l-23.520464 25.088412c-6.271795 7.839743-6.271795 18.817851 0 25.089646l21.958683 20.384566c-6.271795 9.407692-9.407692 21.952515-12.543589 28.22431h-29.79966A17.299248 17.299248 0 0 0 670.542307 827.030614v37.633235c0 10.979341 7.839743 20.384566 17.248669 20.384566h29.793492c3.135897 6.271795 7.839743 18.817851 12.543589 28.225543l-21.958683 20.384566a17.052521 17.052521 0 0 0 0 23.520464l25.088412 25.088412c7.840977 6.273028 18.817851 6.273028 25.089646 0l20.384566-21.958683c9.407692 6.273028 21.952515 9.408926 28.225543 12.544823v29.799659a17.298014 17.298014 0 0 0 17.247435 17.248669h37.638169c10.979341 0 20.383332-7.840977 20.383333-17.248669v-26.657594c6.273028-3.135897 18.817851-7.839743 28.225543-12.543589l20.384566 21.951281a17.052521 17.052521 0 0 0 23.521697 0l25.088412-25.088412c6.271795-7.839743 6.271795-18.816617 0-25.088412l-21.952515-20.384566c6.271795-9.407692 9.407692-21.958683 12.543589-28.225543h29.793492a17.299248 17.299248 0 0 0 17.248669-17.248669v-37.633235c0.002467-10.975641-7.837276-20.384566-17.246202-20.384566z m-155.236785 114.467653c-42.337081 0-78.403601-34.497338-78.403601-78.401133s36.065286-78.401133 78.403601-78.401133c43.905029 0 78.402367 36.065286 78.402367 78.4036 0 43.901329-36.065286 78.398666-78.402367 78.398666z"  /><path d="M261.310177 440.855101a53.346029 53.346029 0 0 0 80.018427-46.199588 288.012799 288.012799 0 1 1 575.973786 0 53.321357 53.321357 0 0 0 106.642713 0 394.654279 394.654279 0 1 0-789.308558 0 53.342329 53.342329 0 0 0 26.673632 46.199588z"  /><path d="M405.357903 394.655513a53.321357 53.321357 0 0 0 106.642714 0 117.345721 117.345721 0 0 1 234.637162 0 53.321357 53.321357 0 0 0 106.642714 0 223.966229 223.966229 0 1 0-447.932459 0z"  /><path d="M712.979313 1004.77505l-1.334792-1.068327-26.297374-26.297373c-16.988372-16.987138-18.117147-44.904273-3.385091-63.350801-24.266812-2.579528-43.280811-24.455558-43.280811-50.972517v-37.633235a48.158599 48.158599 0 0 1 43.259839-47.847724c-14.130042-17.600254-13.931427-43.537407 1.130009-62.363893l0.756218-0.946197 25.042767-26.685968c16.989606-16.987138 44.911675-18.115913 63.352034-3.385091 2.578295-24.266812 24.454324-43.280811 50.971284-43.280811h37.633235a48.157365 48.157365 0 0 1 47.845256 43.259839c17.603955-14.130042 43.53864-13.930194 62.365127 1.130009l0.944963 0.757451 26.685968 25.042767c17.716216 17.71745 18.181296 47.329597 1.400175 65.673733l-1.727088 2.128019h0.473716a45.644453 45.644453 0 0 1 25.187102 7.611521v-82.882926a85.324287 85.324287 0 0 0-85.330454-85.330454H682.666461V394.655513a53.321357 53.321357 0 1 0-106.642714 0v223.988434H85.336006A85.331688 85.331688 0 0 0 0.000617 703.663526v235.007253a85.324287 85.324287 0 0 0 85.335389 85.330455h695.60543a47.698454 47.698454 0 0 1-5.59823-18.096176c-17.600254 14.130042-43.536173 13.92896-62.363893-1.130008zM189.557097 865.797559a53.371936 53.371936 0 1 1 19.80229-64.784283 53.375637 53.375637 0 0 1-19.80229 64.784283z m192.022513 0a53.370702 53.370702 0 1 1 19.807226-64.784283 53.369469 53.369469 0 0 1-19.807226 64.784283z"  /></svg>