<?xml version="1.0" standalone="no"?><!DOCTYPE svg PUBLIC "-//W3C//DTD SVG 1.1//EN" "http://www.w3.org/Graphics/SVG/1.1/DTD/svg11.dtd"><svg class="icon" width="200px" height="200.00px" viewBox="0 0 1024 1024" version="1.1" xmlns="http://www.w3.org/2000/svg"><path d="M148.945 428.218H23.273v-51.2h139.636c9.31 0 23.273 4.655 27.927 18.618l51.2 102.4 93.091-339.781c0-18.619 13.964-32.582 32.582-27.928 18.618 0 32.582 13.964 32.582 27.928l79.127 432.872 102.4-293.236c4.655-13.964 18.618-23.273 32.582-23.273 13.964 0 27.927 4.655 32.582 18.618l41.89 88.437h107.055v51.2H674.91c-9.309 0-23.273-4.655-27.927-18.618L614.4 349.09 502.69 665.6c-4.654 13.964-18.617 23.273-37.235 23.273-13.964 0-27.928-13.964-32.582-27.928l-69.818-428.218-83.782 311.855c-4.655 13.963-13.964 23.273-32.582 27.927-13.964 0-27.927-4.654-37.236-18.618l-60.51-125.673z m600.437 535.273c-55.855 0-111.71-23.273-148.946-60.51-41.89-41.89-60.509-93.09-60.509-148.945 0-55.854 23.273-111.709 60.51-148.945 41.89-41.891 93.09-60.51 148.945-60.51 55.854 0 111.709 23.274 148.945 60.51 41.891 41.89 60.51 93.09 60.51 148.945 0 55.855-23.273 111.71-60.51 148.946-9.309 9.309-23.272 9.309-32.582 0-9.309-9.31-9.309-23.273 0-32.582 32.582-32.582 46.546-74.473 46.546-116.364 0-46.545-18.618-88.436-46.546-116.363-65.163-65.164-172.218-65.164-237.381 0-32.582 32.582-46.546 74.472-46.546 116.363 0 46.546 18.618 88.437 46.546 116.364 41.89 41.89 102.4 60.51 162.909 41.89 13.963-4.654 23.272 4.655 27.927 18.62 4.655 13.963-4.655 23.272-18.618 27.926-13.964 0-32.582 4.655-51.2 4.655z"  /><path d="M1000.727 1024c-4.654 0-13.963 0-18.618-4.655L875.055 912.291c-9.31-9.31-9.31-23.273 0-32.582 9.309-9.309 23.272-9.309 32.581 0l107.055 107.055c9.309 9.309 9.309 23.272 0 32.581-4.655 0-9.31 4.655-13.964 4.655zM493.382 847.127H102.4c-27.927 0-51.2-23.272-51.2-51.2V102.4c0-27.927 23.273-51.2 51.2-51.2h609.745c27.928 0 51.2 23.273 51.2 51.2v367.71c18.619 0 32.582 4.654 51.2 9.308V102.4C814.545 46.545 768 0 712.145 0H102.4C46.545 0 0 46.545 0 102.4v693.527c0 55.855 46.545 102.4 102.4 102.4h423.564c-13.964-18.618-23.273-32.582-32.582-51.2z"  /></svg>