<?xml version="1.0" standalone="no"?><!DOCTYPE svg PUBLIC "-//W3C//DTD SVG 1.1//EN" "http://www.w3.org/Graphics/SVG/1.1/DTD/svg11.dtd"><svg t="1588162425728" class="icon" viewBox="0 0 1024 1024" version="1.1" xmlns="http://www.w3.org/2000/svg" p-id="20899" xmlns:xlink="http://www.w3.org/1999/xlink" width="64" height="64"><defs><style type="text/css"></style></defs><path d="M1006.65599999 512C1006.656 784.736 784.76800001 1006.656 512 1006.65599999S17.344 784.736 17.34400001 512c0-272.768 221.888-494.656 494.65599999-494.65599999S1006.656 239.23199999 1006.65599999 512z" fill="#1296db" p-id="20900" data-spm-anchor-id="a313x.7781069.0.i33" class="selected"></path><path d="M72.03199999 512c0 242.624 197.376 440 439.96800001 440S951.968 754.62399999 951.96800001 512c0-242.55999999-197.376-440-439.96800001-440S72.032 269.44 72.03199999 512z" fill="#1296db" p-id="20901" data-spm-anchor-id="a313x.7781069.0.i32" class="selected"></path><path d="M273.37600001 582.88l208.09599999 210.464a42.112 42.112 0 0 0 45.728 9.376c0.96-0.38399999 1.728-1.312 2.656-1.76a40.896 40.896 0 0 0 11.104-7.296l0.064-0.096 0.128-0.096 209.28-208.704a41.984 41.984 0 0 0-29.664-71.744c-10.71999999 0-21.472 4.06399999-29.664 12.256l-136.064 135.68 0-400.64a42.016 42.016 0 1 0-84.032 1e-8L471.008 663.13600001l-137.888-139.32800001c-8.224-8.32-19.03999999-12.48-29.888-12.48a41.92 41.92 0 0 0-29.85599999 71.552z" fill="#FFFFFF" p-id="20902"></path></svg>