<?xml version="1.0" standalone="no"?><!DOCTYPE svg PUBLIC "-//W3C//DTD SVG 1.1//EN" "http://www.w3.org/Graphics/SVG/1.1/DTD/svg11.dtd"><svg t="1583900167318" class="icon" viewBox="0 0 1024 1024" version="1.1" xmlns="http://www.w3.org/2000/svg" p-id="996" xmlns:xlink="http://www.w3.org/1999/xlink" width="200" height="200"><defs><style type="text/css"></style></defs><path d="M948.8 929.1H75.2c-11 0-20-9-20-20v-794.2c0-11 9-20 20-20s20 9 20 20v774.2h853.5c11 0 20 9 20 20s-8.9 20-19.9 20z" fill="#515151" p-id="997"></path><path d="M729.1 502C843 683.1 863.2 114.3 930.9 547.9v286.8H77.4V631.6s38.9-27 68.9-210.7 124.1-325.5 190.5-67.5c0 0 66.5 220.7 133.3 106.6s89.2-228 259 42z" fill="#515151" p-id="998"></path><path d="M729.1 502c-169.8-270-192.2-156.1-259-42S336.8 353.4 336.8 353.4c-66.4-258-160.4-116.2-190.5 67.5s-68.9 210.7-68.9 210.7v100s38.9-27 68.9-210.7 124.1-325.5 190.5-67.5c0 0 66.5 220.7 133.3 106.6s89.2-227.9 259 42C843 783.1 863.2 214.3 930.9 647.9v-100C863.2 114.3 843 683.1 729.1 502z" fill="#515151" p-id="999"></path><path d="M930.9 854.7H77.4c-11 0-20-9-20-20V631.6c0-6.2 2.8-12 7.7-15.7 2-2 35.1-36.6 61.5-198.2 9.4-57.6 25-110.9 43.8-150.2 23.1-48.2 49.7-73.3 79-74.7 23-1 43.9 12.6 62 40.4C328 258.6 343 297.2 356.1 348c1.1 3.6 10.7 34.1 25.2 64.6 26.2 55 44 59.7 47.3 60.1 6.4 0.8 15.5-7.8 24.3-22.8 7.2-12.3 14-24.8 20.5-36.8 12.9-23.9 25.2-46.4 38.7-63.5 17.5-22.1 36.1-33.2 56.8-33.8h2c46 0 97 51.2 175.2 175.6 14 22.3 24 27.8 27.6 27.5 1.4-0.1 8.8-1.7 21.3-22.5 10.1-16.8 19.3-38.8 28.1-60 7.4-17.7 14.4-34.4 21.5-47.1 4.7-8.4 17.3-30.7 39.3-28 21.6 2.6 32.2 27.8 39.7 52.1 8.7 28.2 17.5 71.3 27 131.7 0.2 1 0.2 2.1 0.2 3.1V835c0.1 10.8-8.9 19.7-19.9 19.7z m-833.5-40h813.5V549.4c-7.8-49.7-15-86.6-22-112.8-3.7-13.6-6.8-22.4-9.2-28.1-1.1 1.9-2.3 4.2-3.7 7-5 10-10.3 22.7-15.9 36.1-21.3 51-43.2 103.7-83.1 107-34 2.8-57.2-33.9-64.8-46-82.3-130.8-122.7-157.5-142.1-156.9-20.5 0.7-40.5 37.5-61.6 76.4-6.7 12.3-13.6 25-21.1 37.9-18.1 30.9-39.5 45.2-63.5 42.3-28.1-3.3-53.9-30.5-78.8-83-16.6-35-26.9-68.8-27.3-70.2-0.1-0.3-0.1-0.5-0.2-0.8C293.6 265.5 267.2 232.8 251.7 232.8h-0.5c-9.8 0.4-26.7 14.3-44.7 52-17.2 36-31.6 85.5-40.4 139.4-23.7 144.7-53.5 197.3-68.7 215.5v175z" fill="#515151" p-id="1000"></path><path d="M76 790.2s67.3-18.3 94.7-205.3c0 0 52.3-207.8 168.1 12.8 0 0 95.9 236.6 179.4-24 0 0 61-316.5 205.5-54.4 0 0 109.6 227 170.6 59.1 0 0 21.2-33.6 38.6 1.6v327.7H76V790.2z" fill="#515151" p-id="1001"></path><path d="M894.3 578.5c-61 167.8-170.6-59.1-170.6-59.1-144.5-262.2-205.5 54.4-205.5 54.4-83.4 260.6-179.4 24-179.4 24-115.9-220.8-168.2-12.9-168.2-12.9-27.4 187-94.7 205.3-94.7 205.3V855c19.8-13.1 63.8-57.7 84.7-200.2 0 0 52.3-207.8 168.1 12.8 0 0 95.9 236.6 179.4-24 0 0 61-316.5 205.5-54.4 0 0 109.6 227 170.6 59.1 0 0 21.2-33.6 38.6 1.6v257.7h10V580.1c-17.4-35.2-38.5-1.6-38.5-1.6z" fill="#515151" p-id="1002"></path><path d="M932.9 927.8H76c-11 0-20-9-20-20V790.2c0-9.5 5.1-17.3 14.3-19.2 4.8-2.1 57.1-29.1 80.5-189 0.1-0.7 0.2-1.3 0.4-2 0.2-0.9 5.9-23.2 17.6-46.3 17.6-34.8 39.4-54 65-57.1 40.5-4.8 80.6 31.7 122.6 111.8 0.3 0.6 0.6 1.2 0.8 1.8 0.1 0.2 9.8 23.9 25.2 46.8 17 25.3 34.4 39.6 47.6 39.1 10.4-0.4 37.8-11.7 68.6-107.4 1.4-7 8.8-41.4 23-77.4 22.9-57.7 51.7-89.7 85.8-95 44-6.9 87.7 30.2 133.6 113.5 0.2 0.3 0.3 0.6 0.5 1 0.1 0.3 14.7 30.1 35.4 59 33.7 46.8 54 51 61.2 50.7 12.8-0.7 26.1-17.9 37.2-48.7 0.5-1.3 1.1-2.6 1.9-3.8 2.6-4.2 16.9-24.9 38.9-23.7 9.9 0.5 23.9 5.6 34.5 27.1 1.4 2.8 2.1 5.8 2.1 8.9V908c0.2 10.8-8.8 19.8-19.8 19.8z m-836.9-40h816.9V587c-0.3 0.3-0.5 0.6-0.8 0.9-17.4 46.5-41.6 70.8-71.9 72.4-1 0-1.9 0.1-2.9 0.1-29.6 0-60.9-22.8-93.1-67.8-21.4-29.8-36.2-59.5-38.4-64-34.7-62.8-68.2-96.6-92.1-92.8-18.3 2.9-38.3 28.5-54.8 70.3-14.3 36-21.1 71.1-21.2 71.5-0.2 0.8-0.3 1.6-0.6 2.3-28.8 90.1-63.4 134.6-105.6 136.2-28.7 1.1-56.6-18.2-82.7-57.3-15.8-23.7-26.1-47.4-28.3-52.5-44.6-84.6-72.2-91-82.1-89.8-22.9 2.7-42.5 50.2-48.3 72.5-21.9 148.4-69.6 197.7-94.3 213.6v85.2z" fill="#515151" p-id="1003"></path></svg>