<?xml version="1.0" standalone="no"?><!DOCTYPE svg PUBLIC "-//W3C//DTD SVG 1.1//EN" "http://www.w3.org/Graphics/SVG/1.1/DTD/svg11.dtd"><svg class="icon" width="200px" height="164.10px" viewBox="0 0 1248 1024" version="1.1" xmlns="http://www.w3.org/2000/svg"><path d="M190.42 60.212c-18.13 0-30.172 12.042-30.172 30.172v843.232c0 18.13 12.042 30.172 30.172 30.172h722.676c18.13 0 30.172-12.042 30.172-30.172V90.384c0-18.13-12.043-30.172-30.172-30.172H190.42z m0-60.212h722.676c51.213 0 90.384 39.17 90.384 90.384v843.232c0 51.213-39.171 90.384-90.384 90.384H190.42c-51.213 0-90.384-39.17-90.384-90.384V90.384C100.036 39.171 139.206 0 190.42 0z m0 0"  /><path d="M310.844 240.98h481.828c18.13 0 30.172 12.042 30.172 30.172 0 18.13-12.042 30.172-30.172 30.172H310.844c-18.13 0-30.172-12.042-30.172-30.172 0-18.13 12.042-30.172 30.172-30.172z m0 180.636h481.828c18.13 0 30.172 12.042 30.172 30.172 0 18.13-12.042 30.172-30.172 30.172H310.844c-18.13 0-30.172-12.042-30.172-30.172 0-18.13 12.042-30.172 30.172-30.172z m0 180.636H461.44c18.13 0 30.172 12.042 30.172 30.172 0 18.13-12.042 30.172-30.172 30.172H310.844c-18.13 0-30.172-12.042-30.172-30.172 0-18.13 12.042-30.172 30.172-30.172z m254.61 115.792l85.885-93.957v242.568c0 12.836 10.19 22.63 22.63 22.63 12.439 0 22.628-10.19 22.628-22.63V624.087l85.885 93.957c8.47 9.528 23.026 9.925 32.554 1.456 9.528-8.47 9.925-23.026 1.456-32.555l-125.85-137.097-1.455-1.456c-9.528-8.47-23.82-7.676-32.158 1.456L531.577 686.945c-8.47 9.529-8.072 23.82 1.456 32.555 9.395 8.469 24.084 8.072 32.421-1.456z"  /></svg>