<?xml version="1.0" standalone="no"?><!DOCTYPE svg PUBLIC "-//W3C//DTD SVG 1.1//EN" "http://www.w3.org/Graphics/SVG/1.1/DTD/svg11.dtd"><svg class="icon" width="200px" height="200.00px" viewBox="0 0 1024 1024" version="1.1" xmlns="http://www.w3.org/2000/svg"><path d="M845.788156 63.74686 181.339068 63.74686c-64.080457 0-116.028597 51.948139-116.028597 116.028597l0 664.449088c0 64.080457 51.948139 116.028597 116.028597 116.028597l664.449088 0c64.080457 0 116.028597-51.948139 116.028597-116.028597L961.816752 179.775456C961.816752 115.694999 909.869636 63.74686 845.788156 63.74686zM307.197544 698.835246l0 78.161151c0 16.954137-13.745049 30.699186-30.699186 30.699186s-30.699186-13.745049-30.699186-30.699186l0-78.161151c-33.731242-12.481266-57.777915-44.929282-57.777915-82.999342s24.047696-70.518077 57.777915-82.999342L245.799172 247.003604c0-16.954137 13.745049-30.699186 30.699186-30.699186s30.699186 13.745049 30.699186 30.699186l0 285.833981c33.731242 12.481266 57.778938 44.929282 57.778938 82.999342S340.928786 686.355003 307.197544 698.835246zM540.65155 491.162416l0 285.833981c0 16.954137-13.745049 30.699186-30.699186 30.699186s-30.699186-13.745049-30.699186-30.699186L479.253178 491.162416c-33.731242-12.481266-57.778938-44.929282-57.778938-82.999342s24.047696-70.518077 57.778938-82.999342l0-78.161151c0-16.954137 13.745049-30.699186 30.699186-30.699186s30.699186 13.745049 30.699186 30.699186l0 78.161151c33.731242 12.481266 57.777915 44.929282 57.777915 82.999342S574.382792 478.68115 540.65155 491.162416zM774.105556 698.835246l0 78.161151c0 16.954137-13.745049 30.699186-30.699186 30.699186s-30.699186-13.745049-30.699186-30.699186l0-78.161151c-33.731242-12.481266-57.778938-44.929282-57.778938-82.999342s24.047696-70.518077 57.778938-82.999342L712.707185 247.003604c0-16.954137 13.745049-30.699186 30.699186-30.699186s30.699186 13.745049 30.699186 30.699186l0 285.833981c33.731242 12.481266 57.777915 44.929282 57.777915 82.999342S807.835775 686.35398 774.105556 698.835246z" /></svg>