<?xml version="1.0" standalone="no"?><!DOCTYPE svg PUBLIC "-//W3C//DTD SVG 1.1//EN" "http://www.w3.org/Graphics/SVG/1.1/DTD/svg11.dtd"><svg t="1577369177751" class="icon" viewBox="0 0 1024 1024" version="1.1" xmlns="http://www.w3.org/2000/svg" p-id="2559" xmlns:xlink="http://www.w3.org/1999/xlink" width="200" height="200"><defs><style type="text/css"></style></defs><path d="M810 114c26.55 0 51.61 10.45 70.58 29.42S910 187.45 910 214v596c0 26.55-10.45 51.61-29.42 70.58S836.55 910 810 910H214c-26.55 0-51.61-10.45-70.58-29.42S114 836.55 114 810V214c0-26.55 10.45-51.61 29.42-70.58S187.45 114 214 114h596m0-50H214c-82.5 0-150 67.5-150 150v596c0 82.5 67.5 150 150 150h596c82.5 0 150-67.5 150-150V214c0-82.5-67.5-150-150-150z" p-id="2560" fill="#e6e6e6"></path><path d="M195 476.8a140 140.94 0 1 0 280 0 140 140.94 0 1 0-280 0Z" p-id="2561" fill="#e6e6e6"></path><path d="M741.5 275.5m-87.5 0a87.5 87.5 0 1 0 175 0 87.5 87.5 0 1 0-175 0Z" p-id="2562" fill="#e6e6e6"></path><path d="M662.5 751.5m-84.5 0a84.5 84.5 0 1 0 169 0 84.5 84.5 0 1 0-169 0Z" p-id="2563" fill="#e6e6e6"></path><path d="M326.352 458.978l395.013-190.012 17.34 36.048-395.013 190.012z" p-id="2564" fill="#e6e6e6"></path><path d="M321.657 492.549l25.692-30.656 335.929 281.533-25.692 30.656z" p-id="2565" fill="#e6e6e6"></path></svg>