<?xml version="1.0" standalone="no"?><!DOCTYPE svg PUBLIC "-//W3C//DTD SVG 1.1//EN" "http://www.w3.org/Graphics/SVG/1.1/DTD/svg11.dtd"><svg t="1598870792584" class="icon" viewBox="0 0 1024 1024" version="1.1" xmlns="http://www.w3.org/2000/svg" p-id="2154" xmlns:xlink="http://www.w3.org/1999/xlink" width="200" height="200"><defs><style type="text/css"></style></defs><path d="M676.434 519.543l61.166-61.166c28.8 5.074 58.56 3.977 86.949-3.291 35.108-9.052 67.2-27.429 92.845-53.212 25.372-25.508 43.749-57.188 52.937-91.885 8.778-33.6 8.915-69.12 0.275-102.858-2.606-10.422-10.835-18.651-21.12-21.394-10.423-2.88-21.532 0.137-29.212 7.68l-64.594 64.594c-10.971 10.972-25.646 17.006-41.143 17.006s-30.171-6.034-41.143-17.006-17.005-25.645-17.005-41.142 6.034-30.172 17.005-41.143l64.595-64.595c7.542-7.68 10.56-18.651 7.68-29.074-2.743-10.423-10.972-18.377-21.395-21.12-33.737-8.777-69.257-8.64-102.994 0.274-34.56 9.189-66.377 27.566-91.886 53.075-25.645 25.783-44.023 57.874-53.074 92.845-7.406 28.389-8.366 58.012-3.291 86.812L450.286 416.686 326.857 293.257c-0.274-2.057-0.823-4.251-1.508-6.308-0.138-0.412-0.275-0.96-0.412-1.235L278.034 164.48c-1.508-3.84-3.703-7.131-6.583-10.149L181.35 64.23c-11.383-11.383-29.76-11.383-41.143 0L57.92 146.514c-11.383 11.383-11.383 29.76 0 41.143l90.103 90.103c2.88 2.88 6.034 4.937 9.737 6.446l120 48.137c0.549 0.137 1.097 0.411 1.646 0.686 2.057 0.685 4.251 1.234 6.308 1.508l123.429 123.429-327.497 327.36c-21.943 21.943-34.012 51.154-34.012 82.148s12.069 60.206 34.012 82.286c22.765 22.766 52.388 34.011 82.285 34.011 29.76 0 59.658-11.382 82.286-34.011L512 683.84l264.823 264.823c22.766 22.766 52.388 34.011 82.148 34.011 29.76 0 59.658-11.383 82.286-34.011 45.394-45.394 45.394-119.04 0-164.434L676.434 519.543z m-491.52-287.177l-65.417-65.417 41.143-41.143 65.28 65.28 26.469 68.434-67.475-27.154z m20.023 676.388c-22.766 22.766-59.657 22.766-82.148 0-22.766-22.765-22.766-59.657 0-82.285l514.56-514.56-4.389-16.32c-6.583-24.138-6.583-49.783-0.411-74.058 6.445-24.96 19.474-47.862 37.988-66.377 18.103-18.24 40.869-31.405 65.692-37.851 5.485-1.509 11.108-2.606 16.731-3.429l-20.571 20.572c-21.943 21.943-34.012 51.154-34.012 82.148 0 31.132 12.069 60.206 34.012 82.149 22.765 22.766 52.388 34.011 82.285 34.011 29.76 0 59.657-11.383 82.149-34.011l20.571-20.572c-0.823 5.486-1.92 11.109-3.428 16.595-6.583 24.685-19.475 47.451-37.852 65.554-18.377 18.377-41.28 31.543-66.24 37.989-24.274 6.308-49.92 6.171-74.194-0.275l-16.183-4.388-514.56 515.108z m695.177-1.097c-11.383 11.383-26.194 17.006-41.143 17.006-14.948 0-29.76-5.623-41.142-17.006L553.143 642.834l82.148-82.285L900.114 825.37c22.629 22.629 22.629 59.52 0 82.286z m0 0" p-id="2155" data-spm-anchor-id="a313x.7781069.0.i3" class="selected" fill="#ffffff"></path></svg>