<?xml version="1.0" standalone="no"?><!DOCTYPE svg PUBLIC "-//W3C//DTD SVG 1.1//EN" "http://www.w3.org/Graphics/SVG/1.1/DTD/svg11.dtd"><svg class="icon" width="200px" height="200.00px" viewBox="0 0 1024 1024" version="1.1" xmlns="http://www.w3.org/2000/svg"><path d="M844.839241 585.185756a38.397122 38.397122 0 0 0-38.407132 38.407132v272.403358a51.259558 51.259558 0 0 1-51.219519 51.18949H134.442431a51.249548 51.249548 0 0 1-51.189489-51.18949V128.003754a51.249548 51.249548 0 0 1 51.189489-51.18949h358.406507a38.407132 38.407132 0 1 0 0-76.814264H134.442431C63.914245 0 6.438678 57.435528 6.438678 128.003754v767.992492c0 70.558215 57.435528 128.003754 127.993744 128.003754h620.780168c70.588244 0 128.033783-57.435528 128.033783-127.993744V623.582878a38.397122 38.397122 0 0 0-38.407132-38.397122z"  /><path d="M150.437896 765.339928a38.397122 38.397122 0 0 0 38.407132 38.407132h421.307318a38.407132 38.407132 0 1 0 0-76.814264h-421.307318a38.397122 38.397122 0 0 0-38.407132 38.407132zM332.934333 457.992786h-144.139354a38.407132 38.407132 0 0 0 0 76.814264h144.139354a38.407132 38.407132 0 1 0 0-76.814264zM1008.217194 161.93656L863.247037 16.716161a32.030967 32.030967 0 0 0-45.28378 0L491.027176 343.592184a31.890832 31.890832 0 0 0-9.339029 23.843051l5.435255 143.779005a31.9609 31.9609 0 0 0 31.66061 30.809787l139.655018 1.341297h0.3103a32.030967 32.030967 0 0 0 22.62187-9.379068l326.805955-326.805955a32.030967 32.030967 0 0 0 0.040039-45.243741z m-362.590551 317.306771l-95.722545-0.94091-3.753629-99.316018L840.555099 84.581773l99.746434 99.90659z"  /></svg>