<?xml version="1.0" standalone="no"?><!DOCTYPE svg PUBLIC "-//W3C//DTD SVG 1.1//EN" "http://www.w3.org/Graphics/SVG/1.1/DTD/svg11.dtd"><svg class="icon" width="200px" height="200.00px" viewBox="0 0 1024 1024" version="1.1" xmlns="http://www.w3.org/2000/svg"><path d="M149.850453 150.306133s17.399467 218.318507 34.133334 327.947947c14.9248 97.778347 11.64288 98.962773 24.804693 125.825707 6.381227 13.026987 12.741973 34.880853 12.741973 34.880853s32.426667-13.356373 34.133334-41.506133c3.02592-49.906347 11.241813-111.018667 17.082026-174.08 2.25792-24.38656 0-64.22528 0-64.22528l498.7648 52.440746-14.80704-75.864746-463.15008-55.908694s-0.708267-13.390507-5.664426-16.264533c-4.957867-2.87744-138.038613-113.245867-138.038614-113.245867z"  /><path d="M622.465707 271.568213l63.863466 9.494187s18.1504 3.438933 18.071894 31.336107c-0.078507 27.89888 10.581333 124.803413 10.581333 124.803413s-12.91264 2.02752-28.151467 0.008533c-15.238827-2.020693-70.140587-6.423893-71.579306-28.371626-1.442133-21.947733-11.124053-123.680427-11.124054-123.680427s-2.205013-2.87744 4.258134-8.738133c6.46144-5.860693 14.08-4.852053 14.08-4.852054zM401.012053 387.10272s-19.444053-88.871253 13.764267-98.853547 56.164693 16.366933 55.570773 42.717867-4.032853 75.61216-32.674133 75.61216-36.660907-19.47648-36.660907-19.47648zM517.86752 622.4128V354.80576l18.78528 14.47936v253.12768h16.730453v11.165013h-49.262933v-11.165013zM509.98272 339.725653s1.585493-17.906347 7.796053-21.633706 21.73952-9.422507 24.53504 10.816853 1.425067 21.41184 0 23.6544c-5.03296 7.92576-32.331093-12.837547-32.331093-12.837547zM284.17536 810.192213H762.026667v13.897387h-9.567574v23.52128h9.567574v18.944H284.17536v-18.944h4.276907v-21.382827h-4.276907z"  /><path d="M326.941013 810.192213l76.786347-421.874346 20.5056 14.98624-74.840747 406.888106zM444.545707 403.304107l43.835733 240.100693 15.73888-9.826987-40.46848-230.273706-10.881707-6.02624zM488.38144 810.192213s-18.93888-6.41536-18.0224-48.110933 0-94.083413 0-94.083413-2.290347-14.764373 18.0224-24.59136 61.120853-6.41536 75.999573 0 20.224 13.899093 20.224 45.974186v87.66976s-1.068373 33.143467-16.03584 33.143467l-80.187733-0.001707zM669.064533 810.192213s-48.110933-31.817387-28.86656-86.47168c7.48544-16.167253 43.83744-63.208107 69.495467 7.355734 0 0 7.48544 38.490453-8.553813 58.8032s-32.075093 20.312747-32.075094 20.312746z"  /><path d="M303.419733 810.192213V702.208H295.936v-18.174293h453.31456v14.967466h-8.552107v111.19104h-8.594773v-110.122666h-132.5312v110.122666h-10.692267v-109.052586h-135.780693v109.052586h-8.553813V702.208h-131.503787v107.984213zM216.313173 489.6256v181.911893h-2.404693v6.859094h-3.428693v18.674346h8.383146v5.384534h-4.191573v6.429013h20.959573v-4.191573l-2.833066-2.833067v-2.121387h9.693866v-19.054933h-5.33504v-7.23968h-2.286933v-60.209493l-1.68448-13.979307v72.66304h-2.889387v7.23968h-7.621973v-7.620267h-2.66752v-155.124053z"  /><path d="M223.054507 682.344107v33.102506h-3.810987v6.478507h-9.146027v23.248213h8.76544v6.59456h-8.76544v73.055574h6.478507v9.52832h-10.289493v32.203093h40.398506v-30.67904h-11.815253v-10.2912h7.23968v-73.816747h-8.383147v-6.976853h8.383147v-21.070507h-11.813547v-8.27392H228.010667v-32.72192z"  /></svg>