<?xml version="1.0" standalone="no"?><!DOCTYPE svg PUBLIC "-//W3C//DTD SVG 1.1//EN" "http://www.w3.org/Graphics/SVG/1.1/DTD/svg11.dtd"><svg class="icon" width="200px" height="200.00px" viewBox="0 0 1024 1024" version="1.1" xmlns="http://www.w3.org/2000/svg"><path d="M337.920073 439.466484c-109.866621 0-198.911917-88.703963-198.911918-198.101251 0-109.397288 89.045296-198.101251 198.911918-198.101251 109.823954 0 198.826584 88.703963 198.826583 198.101251 0 109.397288-89.00263 198.101251-198.86925 198.101251z m0 396.202501c-175.786593 0-318.207867-43.690648-318.207868-155.007935 0-111.359954 142.421274-201.557249 318.165201-201.55725s318.207867 90.239962 318.207867 201.55725-142.506607 155.007935-318.207867 155.007935zM250.496109 963.412932a39.381317 39.381317 0 1 1 37.247984-69.375971 431.10382 431.10382 0 0 0 204.501249 51.199978c239.274567 0 433.237153-193.962586 433.237152-433.237152 0-206.293247-145.279939-382.805174-344.746523-424.191824A39.381317 39.381317 0 1 1 596.778631 10.666662 512.170453 512.170453 0 0 1 1004.287795 511.999787c0 282.794549-229.205238 511.999787-511.999787 511.999786a509.866454 509.866454 0 0 1-241.749232-60.586641z m542.079774-355.839852a39.381317 39.381317 0 1 1-75.093302-23.893323 236.202568 236.202568 0 0 0-109.098621-277.546551 39.381317 39.381317 0 0 1 38.82665-68.565305A314.922535 314.922535 0 0 1 807.338544 511.999787c0 32.767986-5.034665 64.93864-14.762661 95.573293z" fill="#1296db" /></svg>