<?xml version="1.0" standalone="no"?><!DOCTYPE svg PUBLIC "-//W3C//DTD SVG 1.1//EN" "http://www.w3.org/Graphics/SVG/1.1/DTD/svg11.dtd"><svg class="icon" width="200px" height="193.03px" viewBox="0 0 1061 1024" version="1.1" xmlns="http://www.w3.org/2000/svg"><path d="M641.365662 993.169561h-241.993444V801.199958H41.981117v-577.462785h357.391101V31.328661h241.993444v192.408512h361.471774v577.462785H641.365662zM450.534852 941.888303h139.668176V749.96615h361.412463V274.959119H590.203028V82.550606H450.534852v192.408513H93.203063v475.007031H450.534852z" fill="#8a8a8a" /><path d="M368.435017 991.983318h303.737359v32.016682H368.435017zM368.435017 0.011862h303.737359V32.028544H368.435017z" fill="#8a8a8a" /><path d="M977.214601 249.348146H615.802138V0H424.923879v249.348146H67.580228v526.24084h357.343651l-7.817337 247.722993h190.878259l7.817337-247.722993h361.412463V249.348146zM0 265.730153h42.313265v290.688692H0zM1003.074685 267.129919h42.135329v291.874935h-42.135329z" fill="#8a8a8a" /><path d="M93.997845 853.964019H42.372577V170.96125h51.625268zM1003.691531 853.964019h-51.625268V170.96125h51.625268zM616.418985 654.81765H448.42334l-74.579057-55.705942-186.6671 1.138793-0.29656-47.449695 202.598334-1.233692 74.709544 55.800841h138.327723l74.021524-47.449695h197.805915v47.449695H690.440508l-74.021523 47.449695z" fill="#8a8a8a" /><path d="M92.598079 284.389745h859.468184v105.018037H92.598079z" fill="#ffffff" /><path d="M42.906386 314.686376h51.091459v49.822179H42.906386zM950.88002 314.555889H1061.68692v50.11874h-110.8069z" fill="#ffffff" /><path d="M135.477182 271.682717l16.622815 4.227768-31.870774 125.311085-16.624001-4.228954zM188.479677 271.673227l16.624001 4.228954-31.87196 125.311085-16.624-4.227767zM241.483359 271.677972l16.622814 4.227768-31.870773 125.311085-16.624001-4.227768zM294.49653 271.673227l16.624001 4.227768-31.870774 125.311085-16.624-4.227768zM347.500212 271.676786l16.624001 4.227768-31.87196 125.311085-16.624001-4.227768zM400.502707 271.668482l16.624001 4.228954-31.870774 125.309899-16.624-4.227768zM931.71153 396.955843l-16.624001 4.227767L883.216756 275.872525l16.622814-4.227768zM878.711407 396.964146l-16.622814 4.227768-31.87196-125.311085 16.624-4.227768zM825.700608 396.959401L809.076608 401.187169l-31.87196-125.309899 16.624-4.228954zM772.700485 396.967705l-16.624 4.227768-31.870774-125.311085 16.624001-4.227768zM719.712225 396.960588l-16.624001 4.228954-31.870773-125.311086L687.841451 271.649502zM666.701426 396.968891l-16.624001 4.227768-31.871959-125.311085 16.624-4.227768z" fill="#8a8a8a" /><path d="M92.906502 416.738807h859.468184v105.018036H92.906502z" fill="#ffffff" /><path d="M43.202947 447.035437h51.091459v49.822179H43.202947zM951.188443 446.90495h43.025011v50.11874h-43.025011z" fill="#ffffff" /><path d="M135.774929 404.030592l16.624001 4.227768-31.87196 125.311085-16.624001-4.227768zM188.789287 404.024661l16.624 4.228954-31.87196 125.311085-16.624-4.228954zM241.791782 404.029406l16.624001 4.227768-31.870774 125.311085-16.624001-4.227768zM294.795464 404.021102l16.624 4.227768-31.87196 125.311085-16.624-4.227768zM347.797959 404.024661l16.624 4.227768-31.87196 125.311085-16.624-4.227768zM400.800454 404.016357l16.624001 4.228954-31.870774 125.311085-16.624001-4.228954zM932.016394 529.309649l-16.624 4.227767-31.87196-125.311085 16.624-4.227767zM879.017458 529.30609l-16.625187 4.227768-31.870774-125.311085 16.622814-4.227768zM826.016149 529.313207l-16.622815 4.228954-31.87196-125.311085 16.624001-4.227767zM773.00535 529.309649l-16.624001 4.227767-31.87196-125.309898 16.624001-4.228954zM720.005227 529.317952l-16.624001 4.227768-31.870773-125.311085 16.624-4.227768zM667.00629 529.313207l-16.624 4.228954-31.87196-125.311085 16.624-4.227767z" fill="#8a8a8a" /><path d="M515.030849 913.987883v-81.577888h-12.953766l20.99649-51.660855 19.276438 51.660855h-13.26219v81.577888h-14.056972zM517.688032 204.187899v-81.577888h-12.953767l20.99649-51.660855 19.276439 51.660855h-13.26219v81.577888h-14.056972zM855.921319 711.520035l37.236148-72.574308-11.518414-5.919349 42.265816-36.370191-6.441296 54.756947-11.803112-6.049836-37.236148 72.574308-12.502994-6.417571zM203.843889 711.520035l-37.236148-72.574308 11.530276-5.919349-42.277679-36.370191 6.441297 54.756947 11.803111-6.049836 37.248011 72.574308 12.491132-6.417571z" fill="#ffffff" /></svg>