<?xml version="1.0" standalone="no"?><!DOCTYPE svg PUBLIC "-//W3C//DTD SVG 1.1//EN" "http://www.w3.org/Graphics/SVG/1.1/DTD/svg11.dtd"><svg class="icon" width="200px" height="200.00px" viewBox="0 0 1024 1024" version="1.1" xmlns="http://www.w3.org/2000/svg"><path d="M937.112511 842.338043c0 109.459064-1.917277 111.245617-101.789958 111.245617H184.189277c-113.293617 0-112.901447 2.919489-112.901447-99.219064v-649.259575c0-103.140766 0-101.267064 113.293617-101.267064h378.705702V44.27166H181.00834c-141.137702 0-169.940426 18.737021-169.940425 160.615489v647.647319c0 160.354043 28.977021 160.571915 169.940425 160.571915h657.495149c141.224851 0 159.133957-29.717787 159.133958-171.596255v-351.776681h-60.524936v352.604596z m0 0"  /><path d="M991.711319 118.566128L905.172426 32.027234a50.41566 50.41566 0 0 0-82.094298 0L324.455489 529.821957a29.717787 29.717787 0 0 0-2.048 2.265873 28.323404 28.323404 0 0 0-9.673532 14.684596l-21.787234 138.828255a28.541277 28.541277 0 0 0 29.674213 36.036085 28.192681 28.192681 0 0 0 7.146213-0.348596l155.735149-18.214127a28.584851 28.584851 0 0 0 17.429787-10.152852 22.353702 22.353702 0 0 0 2.396596-2.135148L992.364936 200.704a50.372085 50.372085 0 0 0 0-82.094298zM453.479489 655.447149l-93.205787 15.076766s-10.588596 2.483745-14.858893-2.265872c-3.224511-3.660255 0.871489-13.07234 0.871489-13.072341l23.225191-81.876425 84.011575 81.963574z m42.702979-42.61583l-85.449532-83.314383 349.336511-346.417021 84.273021 82.181447-348.16 347.549957z m445.331064-444.459574l-54.380936 54.380936-84.142298-82.050724 55.601021-55.339574a15.207489 15.207489 0 0 1 21.525787 0l61.396426 61.396426a15.163915 15.163915 0 0 1 0 21.438638z m0 0"  /></svg>