<?xml version="1.0" standalone="no"?><!DOCTYPE svg PUBLIC "-//W3C//DTD SVG 1.1//EN" "http://www.w3.org/Graphics/SVG/1.1/DTD/svg11.dtd"><svg t="1588162504040" class="icon" viewBox="0 0 1024 1024" version="1.1" xmlns="http://www.w3.org/2000/svg" p-id="21132" xmlns:xlink="http://www.w3.org/1999/xlink" width="64" height="64"><defs><style type="text/css"></style></defs><path d="M17.344 512C17.344 239.264 239.232 17.344 512 17.344S1006.656 239.264 1006.656 512c0 272.768-221.888 494.656-494.656 494.656S17.344 784.768 17.344 512z" fill="#df5000" p-id="21133" data-spm-anchor-id="a313x.7781069.0.i37" class="selected"></path><path d="M951.968 512c0-242.624-197.376-440-439.968-440S72.032 269.376 72.032 512c0 242.56 197.376 440 439.968 440S951.968 754.56 951.968 512z" fill="#df5000" p-id="21134" data-spm-anchor-id="a313x.7781069.0.i36" class="selected"></path><path d="M750.624 441.12l-208.096-210.464a42.112 42.112 0 0 0-45.728-9.376c-0.96 0.384-1.728 1.312-2.656 1.76a40.896 40.896 0 0 0-11.104 7.296l-0.064 0.096-0.128 0.096-209.28 208.704a41.984 41.984 0 0 0 29.664 71.744c10.72 0 21.472-4.064 29.664-12.256l136.064-135.68v400.64a42.016 42.016 0 1 0 84.032 0V360.864l137.888 139.328c8.224 8.32 19.04 12.48 29.888 12.48a41.92 41.92 0 0 0 29.856-71.552z" fill="#FFFFFF" p-id="21135"></path></svg>