<?xml version="1.0" standalone="no"?><!DOCTYPE svg PUBLIC "-//W3C//DTD SVG 1.1//EN" "http://www.w3.org/Graphics/SVG/1.1/DTD/svg11.dtd"><svg class="icon" width="200px" height="200.00px" viewBox="0 0 1024 1024" version="1.1" xmlns="http://www.w3.org/2000/svg"><path d="M512 1024c282.781538 0 512-229.218462 512-512S794.781538 0 512 0 0 229.218462 0 512s229.218462 512 512 512z m-49.230769-328.192h98.461538V787.692308h-98.461538v-91.884308zM653.942154 276.48C690.412308 303.379692 708.923077 339.574154 708.923077 384.078769c0 20.086154-4.765538 38.596923-14.178462 54.980923-9.452308 16.502154-28.750769 36.233846-58.998153 60.416-29.105231 23.236923-48.600615 39.975385-58.052924 49.74277-9.058462 9.373538-16.029538 20.755692-20.716307 33.870769l-1.496616 4.096c-3.780923 10.200615-5.316923 14.414769-4.804923 34.382769l0.118154 5.316923h-89.521231v-5.198769c0-26.072615 2.363077-33.319385 7.089231-47.812923l0.984616-3.072c5.435077-16.777846 13.666462-31.665231 24.576-44.268308 10.633846-12.288 29.932308-30.483692 57.422769-54.035692 26.939077-23.158154 44.465231-40.093538 52.027077-50.412308 7.246769-9.767385 10.909538-24.891077 10.909538-44.898461 0-19.928615-8.349538-37.100308-25.442461-52.499693-16.777846-15.084308-41.747692-22.724923-74.121847-22.724923-74.043077 0-110.040615 35.918769-110.040615 109.764923v5.198769H315.076923l0.157539-5.356307c1.181538-35.328 6.340923-62.739692 15.36-81.447385 9.058462-18.825846 23.709538-35.879385 43.559384-50.648615a206.651077 206.651077 0 0 1 66.402462-32.689231A277.858462 277.858462 0 0 1 517.356308 236.307692c54.350769 0 100.273231 13.548308 136.585846 40.211693z" fill="#d81e06" /></svg>