<?xml version="1.0" standalone="no"?><!DOCTYPE svg PUBLIC "-//W3C//DTD SVG 1.1//EN" "http://www.w3.org/Graphics/SVG/1.1/DTD/svg11.dtd"><svg class="icon" width="200px" height="200.00px" viewBox="0 0 1024 1024" version="1.1" xmlns="http://www.w3.org/2000/svg"><path d="M0 512C0 229.262222 229.262222 0 512 0s512 229.262222 512 512-229.262222 512-512 512S0 794.737778 0 512z m697.059556 80.412444C723.512889 575.004444 739.555556 544.625778 739.555556 512s-16.042667-62.976-42.496-80.384l-244.622223-160.853333C391.822222 230.912 312.888889 276.48 312.888889 351.175111v321.678222c0 74.752 78.933333 120.206222 139.548444 80.384l244.565334-160.824889h0.056889zM648.504889 512L403.911111 672.796444V351.175111L648.533333 512H648.533333z" fill="#1afa26" /></svg>