<?xml version="1.0" standalone="no"?><!DOCTYPE svg PUBLIC "-//W3C//DTD SVG 1.1//EN" "http://www.w3.org/Graphics/SVG/1.1/DTD/svg11.dtd"><svg class="icon" width="200px" height="200.00px" viewBox="0 0 1024 1024" version="1.1" xmlns="http://www.w3.org/2000/svg"><path d="M928.8 892.1H94.5c-16.9 0-30.5-13.7-30.5-30.5v-20.3c0-16.9 13.7-30.5 30.5-30.5h834.4c16.9 0 30.5 13.7 30.5 30.5v20.3c0 16.9-13.7 30.5-30.6 30.5z m1.7-167.1l-8.5 5.6c-11.7 7.8-27.5 4.6-35.3-7l-90.4-135.4c-7.8-11.7-4.6-27.5 7-35.3l8.5-5.6c11.7-7.8 27.5-4.6 35.3 7l90.4 135.4c7.8 11.7 4.7 27.5-7 35.3zM802 541.6c-74.8 49.9-175.9 29.7-225.8-45.1-49.9-74.8-29.7-175.9 45.1-225.8s175.9-29.7 225.8 45.1c49.9 74.8 29.7 175.9-45.1 225.8z m11.2-203.2c-37.4-56.1-113.2-71.2-169.3-33.8-56.1 37.4-71.2 113.2-33.8 169.3 37.4 56.1 113.2 71.2 169.3 33.8 56.1-37.4 71.3-113.2 33.8-169.3z m-93-16.1c-53.4 0.2-96.7 43.3-96.7 96.7 1.9 36.3 21.8 31 20.3 56-0.7 12.6-40.7-7.1-40.7-66.1 0-59 47.8-106.8 106.8-106.8 47-0.7 37.3 18 35.6 20.4-1.9 3.6-14.6 0.3-25.3-0.2z m-15.2 287v130.2c0 16.9-13.7 30.5-30.5 30.5H572.7c-16.9 0-30.5-13.7-30.5-30.5V518.7c0.1 0.1 0.1 0.2 0.2 0.4 37.8 56.7 99.2 88.1 162.6 90.2zM460.8 770H359c-16.9 0-30.5-13.7-30.5-30.5V291.8c0-16.9 13.7-30.5 30.5-30.5h101.8c16.9 0 30.5 13.7 30.5 30.5v447.7c0 16.9-13.7 30.5-30.5 30.5z m-213.7 0H145.3c-16.9 0-30.5-13.7-30.5-30.5v-580c0-16.9 13.7-30.5 30.5-30.5H247c16.9 0 30.5 13.7 30.5 30.5v580c0.1 16.9-13.5 30.5-30.4 30.5z m0 0" /></svg>