<?xml version="1.0" standalone="no"?><!DOCTYPE svg PUBLIC "-//W3C//DTD SVG 1.1//EN" "http://www.w3.org/Graphics/SVG/1.1/DTD/svg11.dtd"><svg class="icon" width="200px" height="200.00px" viewBox="0 0 1024 1024" version="1.1" xmlns="http://www.w3.org/2000/svg"><path d="M901.152 0H123.36C54.592 0 0.064 56.768 0.064 128.384v575.232C0.064 775.2 54.592 832 123.36 832h777.76c68.736 0 123.296-56.8 123.296-128.416V128.384C1024.416 56.768 969.888 0 901.152 0z m54.528 703.584c0 32.064-23.712 56.8-54.528 56.8H123.36c-30.816 0-54.56-24.736-54.56-56.8V128.384c0-32.096 23.712-56.768 54.56-56.768h777.76c30.816 0 54.528 24.672 54.528 56.768v575.2zM871.008 952.864l-191.264-16.864v-19.008c0-16.608-14.016-30.784-30.304-30.784H374.144c-16.32 0-30.336 14.176-30.336 30.784v19.008l-191.296 16.864c-18.656 0-34.976 16.608-34.976 35.552S133.856 1024 152.48 1024h718.528c18.656 0 35.008-16.608 35.008-35.552s-16.352-35.584-35.008-35.584z" fill="#1296db" /><path d="M358.464 295.584c-33.696 15.232-49.824 57.984-34.592 91.648 15.264 33.696 58.048 49.824 91.744 34.592 33.664-15.232 47.456-51.936 34.528-91.712-15.232-33.664-58.016-49.792-91.68-34.528zM685.248 517.344c-19.2 8.64-24.64 30.272-17.44 46.208 8.672 19.136 30.368 24.672 46.24 17.504 15.936-7.328 26.112-27.2 17.44-46.304-8.64-19.104-27.2-26.048-46.24-17.408z" fill="#1296db" /><path d="M809.12 468.704l-17.44 4.032-1.376-3.168 5.184-13.856c1.76-4.672 3.488-9.312 2.048-12.48l-4.32-9.568-18.176-14.752c-6.112-4.928-17.12-3.808-22.048 2.272l-13.056 13.568-4.576-1.76-2.624-14.144c1.76-4.64 0.32-7.808-4.32-9.568-1.44-3.2-6.048-4.96-10.688-6.656l-23.424-0.928c-4.64-1.728-7.808-0.288-9.568 4.352-3.136 1.408-4.864 6.048-3.488 9.248l-2.016 12.448-3.2 1.44-8.928-11.328c-2.944-6.336-12.192-9.856-18.56-6.976l-19.072 8.672a14.88 14.88 0 0 0-6.944 18.496l3.936 17.344-3.136 1.44-13.952-5.248c-6.048-4.928-17.056-3.808-21.952 2.272l-1.76 4.64-5.76-12.704-19.68-17.984 1.76-4.608 22.016-2.272c12.448 2.016 23.68-6.944 25.76-19.36l4.448-32.672c0.256-7.808-1.12-10.976-4.064-17.376-2.88-6.336-10.688-6.656-12.128-9.888l-32.384-12.16-1.44-3.2 20.864-13.28a23.872 23.872 0 0 0 12.128-32.384l-14.368-31.84c-5.824-12.768-18.176-14.816-29.184-13.696l-23.744 6.912-1.44-3.168 11.936-24.576a48.64 48.64 0 0 0 3.808-17.088c-2.88-6.4-5.824-12.736-10.432-14.464l-27.424-18.304c-6.112-4.928-10.72-6.656-17.056-3.776l-12.768 5.792-17.952 19.616-4.608-1.696-3.744-25.184c1.792-4.64-1.12-11.008-7.2-15.904-2.88-6.4-10.656-6.688-15.328-8.448l-32.704-4.384c-12.416-2.048-23.712 6.88-25.76 19.36l-7.296 26.272-3.2 1.44-13.28-20.832a23.936 23.936 0 0 0-32.416-12.224l-31.744 14.464c-12.768 5.792-17.984 19.616-13.696 29.184l6.912 23.712-3.2 1.44-26.304-7.232c-6.048-4.928-10.688-6.688-17.056-3.808s-12.736 5.76-14.496 10.4l-18.24 27.456c-6.656 10.688-4.064 24.896 1.952 29.792l19.648 17.984-1.728 4.64-28.384 5.152c-4.64-1.728-11.008 1.12-15.904 7.2-6.4 2.88-6.688 10.656-8.448 15.328l-4.384 32.672c-0.288 7.808 1.152 11.008 4.032 17.376 2.88 6.368 10.656 6.656 12.096 9.856l26.368 7.296 1.408 3.168-20.864 13.28a23.872 23.872 0 0 0-12.16 32.384l14.4 31.872c5.792 12.704 19.648 17.952 29.216 13.6l23.744-6.88 1.44 3.2-10.208 19.936c-6.656 10.72-4.064 24.832 6.656 31.584l27.424 18.24c6.048 4.928 10.688 6.688 17.056 3.808l12.736-5.76 17.984-19.68 4.64 1.76 11.552 25.472c-1.728 4.64 1.152 11.008 7.2 15.872 2.88 6.432 10.656 6.752 15.328 8.448l32.672 4.448c7.776 0.256 11.008-1.184 17.344-4.064 6.336-2.88 6.72-10.688 9.92-12.128l7.264-26.304 3.2-1.44 13.28 20.8a23.84 23.84 0 0 0 32.384 12.192l31.84-14.368c12.704-5.76 17.984-19.616 13.632-29.216l-6.912-23.712 3.168-1.408 19.936 10.176c6.08 4.864 10.72 6.656 17.088 3.808 6.368-2.912 12.736-5.792 14.432-10.432l11.616-16.736 2.944 6.368 13.568 13.024-1.824 4.64-14.112 2.592c-7.872-0.32-17.376 4-16.256 15.008l-0.864 23.424c-0.384 7.808 7.2 15.936 11.808 17.632l16.992 3.872 1.504 3.136-11.328 8.928c-6.368 2.88-9.824 12.128-6.944 18.496l8.672 19.136c2.816 6.368 12.064 9.888 18.432 7.008l17.376-4 1.44 3.2-5.184 13.824c-4.928 6.112-3.808 17.12 2.24 22.016l18.176 14.816c6.048 4.928 17.056 3.808 22.016-2.304l13.056-13.504 4.64 1.76 2.56 14.112c-1.76 4.64-0.32 7.744 4.32 9.568 1.44 3.136 6.112 4.928 10.752 6.688l23.36 0.864c4.64 1.824 7.872 0.32 9.568-4.32 3.2-1.44 4.928-6.048 3.552-9.248l3.68-17.056 3.264-1.44 8.864 11.264c2.944 6.368 12.192 9.888 18.56 7.008l19.072-8.672c6.368-2.816 9.952-12.128 7.008-18.496l-4-17.312 3.2-1.44 13.888 5.312c6.048 4.8 17.056 3.68 22.016-2.368l14.752-18.176c1.824-4.64 3.552-9.312 2.048-12.512l-4.32-9.504-13.568-12.992 1.76-4.672 14.176-2.624c7.808 0.384 15.936-7.2 16.192-14.944l0.928-23.424c1.76-4.608 0.256-7.84-4.32-9.568a7.552 7.552 0 0 0-9.312-3.488l-16.992-3.808-1.504-3.2 11.328-8.896c6.432-2.88 9.888-12.128 7.008-18.56l-8.672-19.072c0.352-8-5.76-12.928-15.264-8.64z m-374.464-4.832c-58.944 26.688-126.144 1.344-152.8-57.568s-1.344-126.176 57.568-152.832c54.72-24.768 121.984 0.576 152.832 57.6a114.368 114.368 0 0 1-57.6 152.8z m288.064 136.256a55.264 55.264 0 0 1-74.048-27.872 55.264 55.264 0 0 1 27.872-74.048c28.672-12.992 62.496 2.432 74.048 27.904a55.232 55.232 0 0 1-27.872 74.016z" fill="#1296db" /></svg>